<?xml version="1.0" standalone="no"?><!DOCTYPE svg PUBLIC "-//W3C//DTD SVG 1.1//EN" "http://www.w3.org/Graphics/SVG/1.1/DTD/svg11.dtd"><svg t="1733659780133" class="icon" viewBox="0 0 1024 1024" version="1.1" xmlns="http://www.w3.org/2000/svg" p-id="2318" xmlns:xlink="http://www.w3.org/1999/xlink" width="48" height="48"><path d="M865.474524 221.844964m21.118923 21.118923l18.101933 18.101933q21.118923 21.118923 0 42.237845l-259.461048 259.461049q-21.118923 21.118923-42.237845 0l-18.101934-18.101934q-21.118923-21.118923 0-42.237845l259.461049-259.461048q21.118923-21.118923 42.237845 0Z" fill="#FF4545" p-id="2319"></path><path d="M606.035178 221.835975m-21.118922 21.118922l-18.101934 18.101934q-21.118923 21.118923 0 42.237845l259.461049 259.461048q21.118923 21.118923 42.237845 0l18.101933-18.101933q21.118923-21.118923 0-42.237846l-259.461048-259.461048q-21.118923-21.118923-42.237845 0Z" fill="#FF4545" p-id="2320"></path><path d="M446.890667 338.176l-57.941334 43.008c20.992 60.074667 46.08 114.858667 78.336 165.034667 32.256 50.090667 71.509333 95.573333 117.333334 139.349333l60.245333-39.594667a87.04 87.04 0 0 1 118.101333 19.2l94.72 116.053334 4.608 7.168c28.330667 39.936 16.469333 96-26.026666 123.989333l-95.744 62.72c-91.562667 57.514667-270.762667-92.074667-424.96-331.946667C161.28 403.456 96.682667 173.568 188.757333 113.066667L284.501333 50.346667c0.597333-2.986667 3.498667-2.304 7.082667-4.693334a89.429333 89.429333 0 0 1 119.637333 41.130667l66.474667 134.570667c21.76 41.813333 8.277333 91.306667-30.72 116.906666z" fill="#FF4545" p-id="2321"></path></svg>